<svg width="69" height="70" viewBox="0 0 69 70" fill="none" xmlns="http://www.w3.org/2000/svg">
<g clip-path="url(#clip0_2_6)">
<path d="M34.478 66.5319C50.3142 66.4683 63.6576 54.2169 65.246 38.1421C66.2203 28.2886 63.5951 19.6134 56.6826 12.5094C51.4246 7.10377 44.9901 4.15593 37.5151 3.61349C37.2908 3.59853 37.0665 3.57983 36.8422 3.55365C35.5774 3.404 34.8493 2.65583 34.9486 1.60089C35.0479 0.553433 35.8458 -0.146121 37.0628 0.02596C39.7065 0.392568 42.431 0.564657 44.9497 1.37269C57.2856 5.33807 65.2938 13.7589 68.1029 26.6052C72.0518 44.6738 62.617 61.5042 46.5528 67.7515C28.0214 74.964 6.75444 64.1639 1.47079 44.6476C-1.8678 32.3138 0.430241 21.0798 8.85026 11.3722C11.8543 7.90806 15.5164 5.30439 19.6529 3.40026C20.7964 2.87654 21.7855 3.16458 22.2377 4.14845C22.6863 5.12857 22.2524 6.07876 21.1163 6.63242C11.7844 11.1814 5.89406 18.5734 4.09607 28.9395C0.827333 47.7937 13.3581 63.296 29.3598 65.9633C31.0511 66.2439 32.7719 66.3486 34.478 66.5357L34.478 66.5319Z" fill="white"/>
<path d="M41.0817 36.8328L40.0043 36.8328C32.6212 36.8328 25.2344 36.8328 17.8512 36.8291C17.4615 36.8291 17.057 36.8141 16.682 36.7131C15.8657 36.4924 15.3951 35.7592 15.4502 34.8913C15.5017 34.0571 16.1084 33.3837 16.9357 33.2678C17.2409 33.2266 17.5534 33.2453 17.8659 33.2453C25.2491 33.2453 32.6359 33.2453 40.019 33.2453C40.3205 33.2453 40.6184 33.2453 41.0817 33.2453C40.8206 32.9423 40.6772 32.7515 40.5081 32.5832C38.8719 30.9222 37.2283 29.2687 35.5995 27.604C34.717 26.7024 34.6177 25.6138 35.32 24.8582C36.0664 24.0539 37.1474 24.1175 38.074 25.0527C40.8537 27.8621 43.6297 30.6753 46.3984 33.496C47.4353 34.5546 47.4206 35.4674 46.3653 36.5411C43.615 39.3393 40.861 42.1337 38.1034 44.9244C37.1952 45.8447 36.0738 45.9382 35.3494 45.1713C34.6508 44.4306 34.7611 43.3271 35.6325 42.4293C37.3974 40.6149 39.166 38.808 41.0853 36.8366L41.0817 36.8328Z" fill="white"/>
<path d="M29.926 0.232136C31.0107 0.232136 31.7791 0.879316 31.8931 1.77714C32.0181 2.77596 31.4666 3.59148 30.4775 3.786C29.3745 3.99924 28.2641 4.18628 27.15 4.32844C26.0028 4.47433 25.2012 3.90571 25.0137 2.89193C24.8336 1.92303 25.4623 1.04017 26.5653 0.815717C27.7199 0.58004 28.8891 0.4117 29.926 0.232136Z" fill="white"/>
</g>
<defs>
<clipPath id="clip0_2_6">
<rect width="69" height="70" fill="white" transform="translate(69 70) rotate(-180)"/>
</clipPath>
</defs>
</svg>